<svg version="1.2" baseProfile="tiny" viewBox="0 0 52.625 56.001" xmlns:xlink="http://www.w3.org/1999/xlink" xmlns="http://www.w3.org/2000/svg">
<path style="fill:#ffffff;" d="M51.6251,54.0012L47.5619,54.0012L47.5619,21.2501C47.563,9.5331,38.0289,0.0,26.312,0.0C14.595,0.0,5.0631,9.5331,5.0631,21.2501L5.0631,54.0012L0.9999,54.0012C0.4468,54.0012,0.0,54.4481,0.0,55.0008C0.0,55.5541,0.4468,56.001,0.9999,56.001L11.1249,56.001C11.678,56.001,12.1248,55.5541,12.1248,55.0008C12.1248,54.4481,11.678,54.0012,11.1249,54.0012L7.0628,54.0012L7.0628,30.1918L7.0628,30.1918C10.4482,37.4468,17.792,42.4992,26.312,42.4992C34.833,42.4992,42.1779,37.4468,45.5633,30.1913L45.5633,54.0012L41.5001,54.0012C40.947,54.0012,40.5002,54.4481,40.5002,55.0008C40.5002,55.5541,40.947,56.001,41.5001,56.001L51.6251,56.001C52.1782,56.001,52.625,55.5541,52.625,55.0008C52.625,54.4481,52.1782,54.0012,51.6251,54.0012M26.312,40.4988C15.698,40.4988,7.0628,31.864,7.0628,21.2501C7.0628,10.6363,15.697,1.9998,26.312,1.9998C36.927,1.9998,45.5633,10.6363,45.5633,21.2501C45.5633,31.864,36.927,40.4988,26.312,40.4988Z"/>
</svg>