<svg version="1.2" baseProfile="tiny" viewBox="0 0 52.625 56.001" xmlns:xlink="http://www.w3.org/1999/xlink" xmlns="http://www.w3.org/2000/svg">
<path style="fill:#ffffff;" d="M26.312,1.0002C29.2379,1.0002,32.0192,1.6212,34.5299,2.7368C36.8191,3.7549,38.8841,5.184,40.6318,6.9312C42.45,8.749,43.924,10.9112,44.947,13.3109C45.9869,15.7492,46.5631,18.4322,46.5631,21.2501C46.5631,24.0463,45.9969,26.7091,44.9712,29.1317C43.9471,31.5549,42.4631,33.7361,40.6312,35.569C39.0472,37.1527,37.2011,38.4749,35.1651,39.4673C32.4901,40.7687,29.4858,41.499,26.3109,41.499C23.9528,41.499,21.6878,41.0958,19.5818,40.3538C16.6969,39.3368,14.1109,37.6859,11.9922,35.5679C10.4029,33.9792,9.0768,32.1278,8.0848,30.0837C6.7892,27.4142,6.0619,24.417,6.0619,21.2501C6.0619,18.2838,6.7002,15.4669,7.8448,12.929C8.8599,10.6811,10.2719,8.6522,11.9922,6.9312C13.8209,5.1023,15.998,3.6221,18.414,2.5979C20.8421,1.5691,23.5107,1.0002,26.312,1.0002Z"/>
</svg>