<svg version="1.2" baseProfile="tiny" viewBox="0 0 42.5 56.0" xmlns:xlink="http://www.w3.org/1999/xlink" xmlns="http://www.w3.org/2000/svg">
<path style="fill:#ffffff;" d="M21.25,56.0C13.954,56.0,6.7779,54.0792,0.499,50.4448C0.19,50.2673,0.0,49.9369,0.0,49.5802L0.0,6.4198C0.0,6.0631,0.19,5.7327,0.499,5.5541C6.7779,1.9202,13.954,0.0,21.25,0.0C28.546,0.0,35.7221,1.9202,42.001,5.5541C42.31,5.7327,42.5,6.0631,42.5,6.4198L42.5,49.5802C42.5,49.9358,42.31,50.2673,42.001,50.4448C35.7221,54.0792,28.546,56.0,21.25,56.0M2.0001,48.9978C7.8548,52.2721,14.498,54.0002,21.25,54.0002C28.002,54.0002,34.6451,52.2721,40.5,48.9978L40.5,7.0011C34.6451,3.7279,28.002,1.9998,21.25,1.9998C14.498,1.9998,7.8548,3.7279,2.0001,7.0011L2.0001,48.9978Z"/>
</svg>