<svg version="1.2" baseProfile="tiny" viewBox="0 0 18.000 15.750" xmlns:xlink="http://www.w3.org/1999/xlink" xmlns="http://www.w3.org/2000/svg">
<path style="fill:#ffffff;" d="M18,3.462v1.905h-1.767V3.462c0-0.954-0.794-1.732-1.768-1.732   h-1.881c-0.974,0-1.769,0.779-1.769,1.732v1.905H9.049V3.462C9.049,1.554,10.645,0,12.585,0h1.881C16.405,0,18,1.554,18,3.462z    M11.963,6.169H0.769C0.353,6.169,0,6.515,0,6.921v8.075c0,0.418,0.343,0.754,0.769,0.754h11.194c0.424,0,0.767-0.336,0.767-0.754   V6.921C12.729,6.515,12.378,6.169,11.963,6.169z M11.326,8.755c0,0.17-0.218,0.309-0.486,0.309H1.89   c-0.267,0-0.483-0.138-0.483-0.309v-0.4c0-0.171,0.216-0.31,0.483-0.31h8.95c0.269,0,0.486,0.138,0.486,0.31V8.755z M11.326,11.239   c0,0.171-0.218,0.311-0.486,0.311H1.89c-0.267,0-0.483-0.14-0.483-0.311V10.84c0-0.172,0.216-0.311,0.483-0.311h8.95   c0.269,0,0.486,0.139,0.486,0.311V11.239z M11.326,13.726c0,0.169-0.218,0.309-0.486,0.309H1.89c-0.267,0-0.483-0.14-0.483-0.309   v-0.401c0-0.17,0.216-0.31,0.483-0.31h8.95c0.269,0,0.486,0.14,0.486,0.31V13.726z"/>
</svg>